# xmcd CD database file
#
# Track frame offsets:
#	150
#	1777
#	3085
#	5049
#	6447
#	7738
#	32681
#	34060
#	35456
#	36876
#	38065
#	39231
#	40414
#	41513
#	43096
#	58354
#	81345
#	98393
#	99906
#	101034
#	102588
#	104172
#	109628
#	112167
#	114547
#	128568
#	142588
#	156607
#	175240
#	179260
#	197468
#	216513
#	220527
#	234301
#	236659
#	239028
#	240636
#	243070
#	245430
#	247845
#	252305
#	256773
#	261257
#	263867
#	266477
#	270949
#	275358
#	276884
#	278116
#	279691
#	281294
#	300047
#	318815
#	333746
#	348684
#	354051
#
# Disc length: 4942 seconds
#
# Revision: 1
# Processed by: cddbd v1.5.2PL0 Copyright (c) Steve Scherf et al.
# Submitted via: CDex 1.51
#
DISCID=08134c38
DTITLE=Crazy Chris Kramer - Die XB-40
DYEAR=2008
DGENRE=Blues
TTITLE0=First Position Riff 1
TTITLE1=First Position Riff 2
TTITLE2=First Position Riff 3
TTITLE3=First Position Riff 4
TTITLE4=First Position Riff 5
TTITLE5=Sonny Boy Slow Blues
TTITLE6=Weitere Riffs 7
TTITLE7=Weitere Riffs 8
TTITLE8=Weitere Riffs 9
TTITLE9=Weitere Riffs 10
TTITLE10=Weitere Riffs 11
TTITLE11=Weitere Riffs 12
TTITLE12=Weitere Riffs 13
TTITLE13=Weitere Riffs 14
TTITLE14=Any Kind of Music (Bluesshuffle)
TTITLE15=If You ever loose Your Lovin (Bluesballade)
TTITLE16=Ich such den ganz besonderen Ton (Folkrock)
TTITLE17=Second Position Riff 1
TTITLE18=Second Position Riff 2
TTITLE19=Second Position Riff 3
TTITLE20=Second Position Riff 4
TTITLE21=Tell me why (erste Riffs in Song einbauen 1)
TTITLE22=Tell me why (erste Riffs in Song einbauen 2)
TTITLE23=Tell me why (erste Riffs in Song einbauen 3)
TTITLE24=Tell me why (kompletter Song instrumental)
TTITLE25=Tell me why (kompletter Song mit Gesang)
TTITLE26=I love Rock #n Roll (Country)
TTITLE27=Sometimes I wonder (Bluesrock incl. Thema Sound/Verzerrung)
TTITLE28=Sometimes I wonder (Thema)
TTITLE29=Walking alone (Rockballade)
TTITLE30=From Yesterday till Tomorrow (Ragtime)
TTITLE31=Traveling (Thema)
TTITLE32=Traveling (Bluegrass)
TTITLE33=Riffs in mehreren Oktaven 1
TTITLE34=Riffs in mehreren Oktaven 2
TTITLE35=Riffs in mehreren Oktaven 3
TTITLE36=Riffs in mehreren Oktaven 4
TTITLE37=Riffs in mehreren Oktaven 5
TTITLE38=Riffs in mehreren Oktaven 6
TTITLE39=Tell me why Riffs in mehreren Oktaven 1
TTITLE40=Tell me why Riffs in mehreren Oktaven 2
TTITLE41=Tell me why Riffs in mehreren Oktaven 3
TTITLE42=Tell me why Riffs in mehreren Oktaven 4
TTITLE43=Tell me why Riffs in mehreren Oktaven 5
TTITLE44=Tell me why Riffs in mehreren Oktaven 6
TTITLE45=Tell me why Backing Track
TTITLE46=Alternative Töne auf der XB-40 1
TTITLE47=Alternative Töne auf der XB-40 2
TTITLE48=Alternative Töne auf der XB-40 3
TTITLE49=Alternative Töne auf der XB-40 4
TTITLE50=Song for J. (Lagerfeuerversion)
TTITLE51=Song for J. (Rockversion)
TTITLE52=Don't stop trying (instrumental)
TTITLE53=Don't stop trying (mit Gesang)
TTITLE54=Always (thema)
TTITLE55=Always (Jazz)
EXTD=YEAR: 2008
EXTT0=
EXTT1=
EXTT2=
EXTT3=
EXTT4=
EXTT5=
EXTT6=
EXTT7=
EXTT8=
EXTT9=
EXTT10=
EXTT11=
EXTT12=
EXTT13=
EXTT14=
EXTT15=
EXTT16=
EXTT17=
EXTT18=
EXTT19=
EXTT20=
EXTT21=
EXTT22=
EXTT23=
EXTT24=
EXTT25=
EXTT26=
EXTT27=
EXTT28=
EXTT29=
EXTT30=
EXTT31=
EXTT32=
EXTT33=
EXTT34=
EXTT35=
EXTT36=
EXTT37=
EXTT38=
EXTT39=
EXTT40=
EXTT41=
EXTT42=
EXTT43=
EXTT44=
EXTT45=
EXTT46=
EXTT47=
EXTT48=
EXTT49=
EXTT50=
EXTT51=
EXTT52=
EXTT53=
EXTT54=
EXTT55=
PLAYORDER=
